<?xml version="1.0" encoding="UTF-8"?>
<svg width="547px" height="132px" viewBox="0 0 547 132" version="1.1" xmlns="http://www.w3.org/2000/svg" xmlns:xlink="http://www.w3.org/1999/xlink">
    <!-- Generator: Sketch 50.2 (55047) - http://www.bohemiancoding.com/sketch -->
    <title>logo_home</title>
    <desc>Created with Sketch.</desc>
    <defs></defs>
    <g id="Page-1" stroke="none" stroke-width="1" fill="none" fill-rule="evenodd">
        <g id="Coopywriters_home_1440" transform="translate(-226.000000, -159.000000)" fill-rule="nonzero">
            <g id="logo_home" transform="translate(226.000000, 159.000000)">
                <g id="Logo_home" transform="translate(4.000000, 52.000000)" fill="#010101">
                    <polygon id="Shape" points="0.260645161 59.0709677 0.260645161 18.0645161 8.46709677 18.0645161 8.46709677 36.5935484 27.2541935 18.0645161 32.5806452 18.0645161 32.5806452 23.3806452 17.9019355 37.4916129 33.8193548 53.3264516 33.8193548 59.0709677 28.0748387 59.0709677 8.46193548 39.1329032 8.46193548 59.0709677"></polygon>
                    <path d="M58.0206452,59.8709677 C54.9920695,59.921316 51.9867773,59.3339739 49.2,58.1470968 C46.7280071,57.0891008 44.5055044,55.5242057 42.676129,53.5535484 C40.8858162,51.5748469 39.5052602,49.2610559 38.6141935,46.7458065 C37.6520215,44.0905038 37.1662845,41.2861586 37.1793548,38.4619355 C37.1622292,35.6457811 37.6481356,32.8491972 38.6141935,30.203871 C39.5125865,27.7044285 40.8926286,25.4055273 42.676129,23.4374194 C44.5007687,21.4715907 46.7252824,19.9193589 49.2,18.8851613 C54.8348071,16.6440744 61.11358,16.6440744 66.7483871,18.8851613 C69.2313084,19.9262842 71.4679505,21.4771634 73.3135484,23.4374194 C75.1181928,25.3971886 76.5132229,27.6976722 77.4167742,30.203871 C78.3821892,32.8493689 78.8680754,35.6458363 78.8516129,38.4619355 C78.864035,41.2861043 78.3783175,44.0903369 77.4167742,46.7458065 C76.5207184,49.2678796 75.1251468,51.5832996 73.3135484,53.5535484 C71.4632245,55.5186274 69.2285522,57.0821953 66.7483871,58.1470968 C63.9921233,59.3270978 61.0185617,59.9144246 58.0206452,59.8709677 Z M58.0206452,52.8980645 C59.9436192,52.9421555 61.8514611,52.5485858 63.6,51.7470968 C65.1279881,51.0227018 66.4737888,49.9644051 67.5380645,48.6503226 C68.6152288,47.2899161 69.4101028,45.728243 69.876129,44.0567742 C70.4024183,42.2299351 70.6648577,40.3372429 70.6554839,38.436129 C70.6628611,36.5758248 70.4003428,34.724288 69.876129,32.9393548 C69.4036448,31.2829758 68.6091306,29.7360409 67.5380645,28.3870968 C66.4731694,27.0736428 65.1275233,26.0154677 63.6,25.2903226 C60.0381644,23.7583906 56.0031259,23.7583906 52.4412903,25.2903226 C50.9133022,26.0147175 49.5675015,27.0730143 48.5032258,28.3870968 C47.4312437,29.7354499 46.6366315,31.2825755 46.1651613,32.9393548 C45.640304,34.7241486 45.3777723,36.5757798 45.3858065,38.436129 C45.3757237,40.3372899 45.638177,42.2300826 46.1651613,44.0567742 C46.6301471,45.728648 47.4251219,47.290519 48.5032258,48.6503226 C49.566879,49.9650365 50.9128355,51.0234557 52.4412903,51.7470968 C54.1881039,52.5558638 56.0960589,52.9565167 58.0206452,52.9187097 L58.0206452,52.8980645 Z" id="Shape"></path>
                    <path d="M105.112258,59.8709677 C102.083682,59.921316 99.0783902,59.3339739 96.2916129,58.1470968 C93.81962,57.0891008 91.5971173,55.5242057 89.7677419,53.5535484 C87.9775393,51.5747654 86.5969971,49.2609977 85.7058065,46.7458065 C84.7436344,44.0905038 84.2578974,41.2861586 84.2709677,38.4619355 C84.2538421,35.6457811 84.7397485,32.8491972 85.7058065,30.203871 C86.6043208,27.704486 87.9843494,25.4056074 89.7677419,23.4374194 C91.5923816,21.4715907 93.8168953,19.9193589 96.2916129,18.8851613 C101.92642,16.6440744 108.205193,16.6440744 113.84,18.8851613 C116.322921,19.9262842 118.559563,21.4771634 120.405161,23.4374194 C122.209806,25.3971886 123.604836,27.6976722 124.508387,30.203871 C125.473802,32.8493689 125.959688,35.6458363 125.943226,38.4619355 C125.955648,41.2861043 125.46993,44.0903369 124.508387,46.7458065 C123.612331,49.2678796 122.21676,51.5832996 120.405161,53.5535484 C118.554837,55.5186274 116.320165,57.0821953 113.84,58.1470968 C111.083736,59.3270978 108.110175,59.9144246 105.112258,59.8709677 Z M105.112258,52.8980645 C107.035232,52.9421555 108.943074,52.5485858 110.691613,51.7470968 C112.219601,51.0227018 113.565402,49.9644051 114.629677,48.6503226 C115.706842,47.2899161 116.501716,45.728243 116.967742,44.0567742 C117.488402,42.2429688 117.749065,40.3644611 117.741935,38.4774194 C117.750989,36.6173671 117.49021,34.7658353 116.967742,32.9806452 C116.499927,31.3254574 115.710717,29.7786053 114.645161,28.4283871 C113.580266,27.1149332 112.23462,26.056758 110.707097,25.3316129 C107.145261,23.7996809 103.110223,23.7996809 99.5483871,25.3316129 C98.020399,26.0560079 96.6745983,27.1143046 95.6103226,28.4283871 C94.5383404,29.7767402 93.7437283,31.3238658 93.2722581,32.9806452 C92.7474008,34.7654389 92.484869,36.6170701 92.4929032,38.4774194 C92.4828205,40.3785803 92.7452738,42.271373 93.2722581,44.0980645 C93.7372439,45.7699383 94.5322186,47.3318093 95.6103226,48.6916129 C96.6739758,50.0063268 98.0199322,51.064746 99.5483871,51.7883871 C101.293805,52.5806488 103.196059,52.9670994 105.112258,52.9187097 L105.112258,52.8980645 Z" id="Shape"></path>
                    <polygon id="Shape" points="133.907097 59.0709677 133.907097 18.0645161 169.184516 18.0645161 169.184516 59.0864516 160.978065 59.0864516 160.978065 25.0219355 142.113548 25.0219355 142.113548 59.0864516"></polygon>
                    <polygon id="Shape" points="179.677419 59.0709677 179.677419 18.0645161 187.883871 18.0645161 187.883871 46.8490323 209.225806 18.0645161 216.611613 18.0645161 216.611613 59.0864516 208.405161 59.0864516 208.405161 30.1832258 187.073548 59.0864516"></polygon>
                    <path d="M227.109677,79.5819355 L227.109677,18.0645161 L234.490323,18.0645161 L235.228387,24.5470968 C236.757684,22.3067019 238.81353,20.4759352 241.215484,19.2154839 C243.797513,17.8748117 246.673024,17.1989512 249.581935,17.2490323 C252.367674,17.2024488 255.128785,17.7772393 257.664516,18.9316129 C259.975436,20.0020744 262.030824,21.5541739 263.692903,23.483871 C265.375624,25.4745977 266.656851,27.7723932 267.465806,30.2503226 C268.350966,32.9129164 268.793824,35.7025676 268.776774,38.5083871 C268.790095,41.3223616 268.347369,44.1199039 267.465806,46.7922581 C266.663787,49.2856731 265.382123,51.5982787 263.692903,53.6 C260.161828,57.6898467 254.989068,59.9894822 249.587097,59.8709677 C246.691021,59.9242424 243.828089,59.2480011 241.261935,57.9045161 C238.892992,56.6493656 236.855344,54.8505041 235.316129,52.6554839 L235.316129,79.5664516 L227.109677,79.5819355 Z M247.950968,52.9187097 C249.873942,52.9628006 251.781784,52.569231 253.530323,51.7677419 C255.058311,51.043347 256.404111,49.9850502 257.468387,48.6709677 C258.545551,47.3105613 259.340425,45.7488882 259.806452,44.0774194 C260.332741,42.2505802 260.59518,40.357888 260.585806,38.4567742 C260.599205,36.5825094 260.336604,34.7164822 259.806452,32.9187097 C259.318336,31.27384 258.523264,29.7362346 257.463226,28.3870968 C256.413972,27.0578703 255.064324,25.9965484 253.525161,25.2903226 C251.769065,24.5163588 249.864409,24.137542 247.945806,24.1806452 C246.135739,24.1592615 244.343316,24.5381906 242.696774,25.2903226 C241.149583,26.0024268 239.787746,27.0622216 238.717419,28.3870968 C237.624038,29.7470023 236.776872,31.2876227 236.214194,32.9393548 C235.602182,34.721035 235.296776,36.593609 235.310968,38.4774194 C235.301133,40.3878721 235.606299,42.2868795 236.214194,44.0980645 C236.758214,45.7705031 237.606899,47.3278848 238.717419,48.6916129 C239.802691,50.0011735 241.160757,51.0580343 242.696774,51.7883871 C244.337514,52.5600634 246.132873,52.9466747 247.945806,52.9187097 L247.950968,52.9187097 Z" id="Shape"></path>
                    <path d="M287.739355,59.8709677 C283.145806,59.8709677 279.686022,58.6270968 277.36,56.1393548 C275.065579,53.7246123 273.812444,50.5046475 273.870968,47.1741935 C273.819632,43.8415974 275.24643,40.6572859 277.767742,38.4774194 C280.365591,36.1273118 284.590968,34.9505376 290.443871,34.9470968 C293.591991,35.0162788 296.725174,35.4018747 299.796129,36.0980645 L299.796129,33.5483871 C299.796129,30.4860215 299.099355,28.1617204 297.705806,26.5754839 C296.312258,24.9892473 294.056774,24.196129 290.939355,24.196129 C289.4643,24.1543255 287.996671,24.4197291 286.629677,24.9754839 C285.595791,25.41029 284.629439,25.9907965 283.76,26.6993548 C282.941869,27.4244419 282.23724,28.268256 281.669677,29.2025806 L276.332903,29.2025806 L276.332903,23.876129 C277.270254,22.6097778 278.390423,21.489609 279.656774,20.5522581 C281.076457,19.581457 282.621872,18.8087496 284.250323,18.2554839 C286.48439,17.5156957 288.829251,17.1664983 291.181935,17.2232258 C296.649462,17.2232258 300.819785,18.6184946 303.692903,21.4090323 C306.566022,24.1995699 308.002581,28.3010753 308.002581,33.7135484 L308.002581,59.0658065 L301.437419,59.0658065 L300.451613,53.1612903 C299.152055,54.8898649 297.583766,56.3989074 295.806452,57.6309677 C293.762581,59.1243011 291.073548,59.8709677 287.739355,59.8709677 Z M289.050323,53.2232258 C290.593507,53.2513543 292.126886,52.9723987 293.56129,52.4025806 C294.795678,51.9060991 295.934352,51.1987936 296.926452,50.3122581 C297.81558,49.5183589 298.539866,48.5573211 299.058065,47.483871 C299.527387,46.5399782 299.779568,45.5030354 299.796129,44.4490323 L299.796129,42.3225806 C296.728419,41.6079485 293.593314,41.222116 290.443871,41.1716129 C287.16129,41.1716129 284.924731,41.7875269 283.734194,43.0193548 C282.599194,44.0953042 281.947636,45.5845795 281.927742,47.1483871 C281.927742,49.2129032 282.529892,50.744086 283.734194,51.7419355 C284.938495,52.7397849 286.710538,53.2404301 289.050323,53.243871 L289.050323,53.2232258 Z" id="Shape"></path>
                    <path d="M318.092903,59.0709677 L318.092903,18.0645161 L326.299355,18.0645161 L326.299355,46.8490323 L347.630968,18.0645161 L355.016774,18.0645161 L355.016774,59.0864516 L346.810323,59.0864516 L346.810323,30.1832258 L325.47871,59.0864516 L318.092903,59.0709677 Z M337.127742,11.9793548 C334.447312,11.9793548 332.272688,11.5956989 330.603871,10.8283871 C329.176633,10.2323736 327.87668,9.36865876 326.774194,8.28387097 C325.808247,7.20570363 325.056761,5.95322667 324.56,4.59354839 L324.56,-2.13162821e-14 L330.712258,-8.84854913e-15 C330.965791,0.927126284 331.35355,1.81219051 331.863226,2.62709677 C332.375409,3.35574553 333.03258,3.97074464 333.793548,4.43354839 C334.799024,5.02230244 335.953465,5.30732752 337.117419,5.25419355 C338.208193,5.29357352 339.286068,5.00793652 340.214194,4.43354839 C340.967593,3.94755082 341.632607,3.3366455 342.180645,2.62709677 C342.760224,1.8247297 343.214446,0.938909302 343.527742,-2.13162821e-14 L349.68,-2.13162821e-14 L349.68,4.59354839 C349.182213,5.95273668 348.430837,7.20502892 347.465806,8.28387097 C346.368314,9.37012866 345.073812,10.2372173 343.651613,10.8387097 C341.982796,11.5991398 339.808172,11.9793548 337.127742,11.9793548 Z" id="Shape"></path>
                    <polygon id="Shape" points="374.129032 59.0709677 374.129032 25.0064516 361.003871 25.0064516 361.003871 18.0645161 395.460645 18.0645161 395.460645 25.0219355 382.335484 25.0219355 382.335484 59.0864516"></polygon>
                    <path d="M419.089032,59.8709677 C415.93886,59.9330724 412.806049,59.3899118 409.860645,58.2709677 C404.793259,56.3455147 400.871879,52.2267367 399.197419,47.0709677 C398.270901,44.294716 397.813879,41.3833818 397.845161,38.4567742 C397.827553,35.6509123 398.270424,32.8611706 399.156129,30.1987097 C399.975156,27.6989119 401.301808,25.3952814 403.052903,23.4322581 C404.82658,21.4821076 406.99388,19.9305178 409.411613,18.88 C412.168286,17.7203828 415.139227,17.1575048 418.129032,17.2283871 C421.00891,17.1662981 423.876358,17.6243905 426.593548,18.5806452 C428.810337,19.3772743 430.817027,20.6674148 432.461935,22.3535484 C434.005445,23.9879118 435.15629,25.9524682 435.827097,28.0980645 C436.554538,30.4210319 436.915004,32.8432937 436.895484,35.2774194 C436.878239,36.75901 436.767914,38.2380532 436.565161,39.7058065 L406.04129,39.7058065 C406.258065,43.7006452 407.462366,46.8868817 409.654194,49.2645161 C411.846022,51.6421505 414.990968,52.8309677 419.089032,52.8309677 C421.047192,52.8877094 423.001486,52.6244638 424.874839,52.0516129 C426.139364,51.648961 427.340203,51.0685265 428.44129,50.3277419 C429.361588,49.6497479 430.141594,48.79963 430.738065,47.8245161 L436.069677,47.8245161 L436.069677,53.1612903 C435.035782,54.4809037 433.788469,55.6183132 432.379355,56.5264516 C430.739583,57.4937469 428.99164,58.2646433 427.171613,58.8232258 C424.54852,59.591722 421.821373,59.945241 419.089032,59.8709677 Z M406.454194,33.5483871 L428.854194,33.5483871 C428.933565,31.0465619 427.984073,28.6215339 426.227097,26.8387097 C424.475699,25.0632258 421.795269,24.1737634 418.185806,24.1703226 C414.52129,24.1703226 411.785806,25.0597849 409.979355,26.8387097 C408.148847,28.6643985 406.919029,31.0051948 406.454194,33.5483871 Z" id="Shape"></path>
                    <path d="M445.014194,79.5819355 L445.014194,18.0645161 L452.4,18.0645161 L453.138065,24.5470968 C454.667361,22.3067019 456.723208,20.4759352 459.125161,19.2154839 C461.70719,17.8748117 464.582701,17.1989512 467.491613,17.2490323 C470.277352,17.2024488 473.038462,17.7772393 475.574194,18.9316129 C477.886887,19.9947982 479.945743,21.5398197 481.612903,23.4632258 C483.295624,25.4539525 484.576851,27.751748 485.385806,30.2296774 C486.270966,32.8922712 486.713824,35.6819224 486.696774,38.4877419 C486.710095,41.3017164 486.267369,44.0992587 485.385806,46.7716129 C484.583175,49.2632042 483.301539,51.5740053 481.612903,53.5741935 C478.083265,57.6778682 472.903162,59.9877098 467.491613,59.8709677 C464.595537,59.9242424 461.732605,59.2480011 459.166452,57.9045161 C456.801083,56.6530976 454.765407,54.8597218 453.225806,52.6709677 L453.225806,79.5819355 L445.014194,79.5819355 Z M465.855484,52.9187097 C467.778458,52.9628006 469.6863,52.569231 471.434839,51.7677419 C472.962827,51.043347 474.308627,49.9850502 475.372903,48.6709677 C476.450067,47.3105613 477.244942,45.7488882 477.710968,44.0774194 C478.237257,42.2505802 478.499696,40.357888 478.490323,38.4567742 C478.503721,36.5825094 478.24112,34.7164822 477.710968,32.9187097 C477.222852,31.27384 476.42778,29.7362346 475.367742,28.3870968 C474.318488,27.0578703 472.96884,25.9965484 471.429677,25.2903226 C469.673581,24.5163588 467.768925,24.137542 465.850323,24.1806452 C464.040255,24.1592615 462.247832,24.5381906 460.60129,25.2903226 C459.054099,26.0024268 457.692263,27.0622216 456.621935,28.3870968 C455.528554,29.7470023 454.681388,31.2876227 454.11871,32.9393548 C453.510206,34.7216416 453.208293,36.5941997 453.225806,38.4774194 C453.215972,40.3878721 453.521138,42.2868795 454.129032,44.0980645 C454.673053,45.7705031 455.521738,47.3278848 456.632258,48.6916129 C457.71753,50.0011735 459.075596,51.0580343 460.611613,51.7883871 C462.24921,52.5585264 464.040863,52.9450997 465.850323,52.9187097 L465.855484,52.9187097 Z" id="Shape"></path>
                    <path d="M494.732903,59.0709677 L494.732903,18.0645161 L502.939355,18.0645161 L502.939355,32 L511.145806,32 C516.833548,32 521.058925,33.2576344 523.821935,35.7729032 C526.519065,38.1574034 528.029413,41.608548 527.950968,45.2077419 C528.023013,48.9201616 526.534509,52.4925694 523.847742,55.0554839 C521.095054,57.735914 516.828387,59.076129 511.047742,59.076129 L494.732903,59.0709677 Z M502.939355,52.5058065 L510.485161,52.5058065 C513.165591,52.5058065 515.312688,51.9449462 516.926452,50.8232258 C518.540215,49.7015054 519.347097,47.8554839 519.347097,45.2851613 C519.347097,43.0417204 518.567742,41.3591398 517.009032,40.2374194 C515.450323,39.1156989 513.275699,38.5548387 510.485161,38.5548387 L502.939355,38.5548387 L502.939355,52.5058065 Z M534.113548,59.0709677 L534.113548,18.0645161 L542.32,18.0645161 L542.32,59.0864516 L534.113548,59.0709677 Z" id="Shape"></path>
                </g>
                <g id="Group">
                    <rect id="Rectangle-path" fill="#010101" x="0" y="0.729032258" width="77.5535484" height="41.3419355" rx="20.6709677"></rect>
                    <rect id="Rectangle-path" fill="#FFFFFF" x="20.6709677" y="26.5974194" width="5.16645161" height="5.16645161"></rect>
                    <rect id="Rectangle-path" fill="#FFFFFF" x="31.0090323" y="26.5974194" width="5.16645161" height="5.16645161"></rect>
                    <polygon id="Shape" fill="#FFFFFF" points="61.9251613 16.3883871 56.7329032 11.2012903 41.3470968 26.5870968 41.3574194 26.5974194 41.3470968 26.5974194 41.3470968 31.7690323 46.5135484 31.7690323 46.5135484 31.7535484 46.5393548 31.7793548"></polygon>
                </g>
            </g>
        </g>
    </g>
</svg>